<svg width="26" height="25" viewBox="0 0 26 25" fill="none" xmlns="http://www.w3.org/2000/svg">
<g filter="url(#filter0_d_602_7)">
<path fill-rule="evenodd" clip-rule="evenodd" d="M1 7.47457C1 7.18966 0.999884 6.90472 1.00163 6.61978C1.00306 6.37975 1.00583 6.13978 1.01235 5.89986C1.02645 5.37696 1.05729 4.84957 1.15029 4.33249C1.2446 3.80799 1.39862 3.31981 1.64133 2.84321C1.87993 2.37478 2.19161 1.94613 2.56349 1.5745C2.93529 1.20288 3.36406 0.891408 3.83264 0.652951C4.30973 0.410184 4.79844 0.256223 5.32355 0.161942C5.84069 0.0690873 6.36822 0.038301 6.89113 0.0241748C7.13121 0.0176797 7.37127 0.0149417 7.61142 0.0134563C7.8965 0.0117087 8.18159 0.0118543 8.46668 0.0118543L11.7768 0H14.2525L17.504 0.0118543C17.7897 0.0118543 18.0753 0.0117087 18.361 0.0134563C18.6016 0.0149417 18.8421 0.0176797 19.0827 0.0241748C19.6068 0.038301 20.1355 0.0691166 20.6539 0.162087C21.1797 0.25634 21.6691 0.410243 22.1469 0.652835C22.6165 0.89132 23.0461 1.20283 23.4187 1.5745C23.7912 1.9461 24.1035 2.37466 24.3425 2.84301C24.5859 3.31984 24.7402 3.80831 24.8348 4.33311C24.9279 4.84998 24.9587 5.37719 24.9729 5.89986C24.9793 6.13981 24.9821 6.37978 24.9836 6.61978C24.9853 6.90475 25 7.25872 25 7.54366L24.9999 10.7502L25 13.2524L24.9852 16.527C24.9852 16.8123 24.9853 17.0976 24.9836 17.383C24.9821 17.6233 24.9793 17.8636 24.9729 18.1039C24.9587 18.6274 24.9278 19.1556 24.8346 19.6734C24.7401 20.1986 24.5858 20.6874 24.3427 21.1647C24.1036 21.6338 23.7913 22.063 23.4187 22.4351C23.0462 22.8073 22.6166 23.1191 22.1471 23.3579C21.6691 23.601 21.1794 23.7552 20.6533 23.8496C20.1351 23.9426 19.6066 23.9734 19.0827 23.9876C18.8421 23.9941 18.6016 23.9968 18.3609 23.9983C18.0753 24 17.7897 23.9999 17.504 23.9999L14.2231 24H11.7413L8.46668 23.9999C8.18159 23.9999 7.8965 24 7.61142 23.9983C7.37127 23.9968 7.13121 23.9941 6.89113 23.9876C6.36802 23.9734 5.84031 23.9425 5.32294 23.8495C4.79815 23.7551 4.30967 23.601 3.83284 23.358C3.36415 23.1193 2.93532 22.8073 2.56349 22.4351C2.19167 22.063 1.88002 21.6339 1.64142 21.1649C1.39856 20.6874 1.24454 20.1983 1.15017 19.6727C1.05726 19.1552 1.02645 18.6272 1.01232 18.1039C1.00582 17.8636 1.00306 17.6233 1.00163 17.383C0.999855 17.0976 1 16.8123 1 16.527C1 16.527 1.00017 13.3102 1.00017 13.2524V10.7475C1.00017 10.7048 1 7.47457 1 7.47457Z" fill="white" fill-opacity="0.8"/>
</g>
<g filter="url(#filter1_d_602_7)">
<path d="M17.6849 19.835C17.0851 19.835 16.5168 19.6203 16.0987 19.1905C15.6806 18.7605 15.467 18.1718 15.467 17.5207V8.92745C15.467 8.27636 15.6806 7.68766 16.0987 7.25773C16.5168 6.82788 17.0851 6.61319 17.6849 6.61319C18.2918 6.61319 18.8635 6.82541 19.2823 7.26064C19.6995 7.69424 19.9028 8.28396 19.9028 8.92745V17.5282C19.9028 18.1695 19.6986 18.7573 19.2814 19.1895C18.8628 19.6229 18.2917 19.835 17.6849 19.835ZM13.0506 19.8276C12.4567 19.8276 11.8904 19.6207 11.4709 19.1999C11.0497 18.7774 10.8326 18.1957 10.8326 17.5506V13.2763C10.8326 12.6312 11.0497 12.0495 11.4709 11.627C11.8904 11.2062 12.4567 10.9994 13.0506 10.9994C13.6516 10.9994 14.2212 11.2038 14.6415 11.6299C15.0619 12.0562 15.2685 12.6389 15.2685 13.2763V17.5506C15.2685 18.188 15.0619 18.7707 14.6415 19.197C14.2212 19.6231 13.6516 19.8276 13.0506 19.8276ZM8.41621 19.835C7.81644 19.835 7.24813 19.6203 6.83006 19.1905C6.41186 18.7605 6.19828 18.1718 6.19828 17.5207V5.99589C6.19828 5.34481 6.41186 4.75611 6.83006 4.32615C7.24813 3.89633 7.81644 3.68164 8.41621 3.68164C9.02314 3.68164 9.5948 3.89383 10.0136 4.32909C10.4308 4.76269 10.6341 5.35241 10.6341 5.99589V17.5207C10.6341 18.1642 10.4308 18.754 10.0136 19.1876C9.5948 19.6228 9.02314 19.835 8.41621 19.835Z" fill="#1A90DC" stroke="white" stroke-width="1.48544"/>
</g>
<defs>
<filter id="filter0_d_602_7" x="0.708738" y="0" width="24.5825" height="24.5825" filterUnits="userSpaceOnUse" color-interpolation-filters="sRGB">
<feFlood flood-opacity="0" result="BackgroundImageFix"/>
<feColorMatrix in="SourceAlpha" type="matrix" values="0 0 0 0 0 0 0 0 0 0 0 0 0 0 0 0 0 0 127 0" result="hardAlpha"/>
<feOffset dy="0.291262"/>
<feGaussianBlur stdDeviation="0.145631"/>
<feColorMatrix type="matrix" values="0 0 0 0 0 0 0 0 0 0 0 0 0 0 0 0 0 0 0.3 0"/>
<feBlend mode="normal" in2="BackgroundImageFix" result="effect1_dropShadow_602_7"/>
<feBlend mode="normal" in="SourceGraphic" in2="effect1_dropShadow_602_7" result="shape"/>
</filter>
<filter id="filter1_d_602_7" x="4.08663" y="1.62877" width="18.1026" height="20.5513" filterUnits="userSpaceOnUse" color-interpolation-filters="sRGB">
<feFlood flood-opacity="0" result="BackgroundImageFix"/>
<feColorMatrix in="SourceAlpha" type="matrix" values="0 0 0 0 0 0 0 0 0 0 0 0 0 0 0 0 0 0 127 0" result="hardAlpha"/>
<feOffset dx="0.0873786" dy="0.145631"/>
<feGaussianBlur stdDeviation="0.728155"/>
<feComposite in2="hardAlpha" operator="out"/>
<feColorMatrix type="matrix" values="0 0 0 0 0 0 0 0 0 0 0 0 0 0 0 0 0 0 0.13 0"/>
<feBlend mode="normal" in2="BackgroundImageFix" result="effect1_dropShadow_602_7"/>
<feBlend mode="normal" in="SourceGraphic" in2="effect1_dropShadow_602_7" result="shape"/>
</filter>
</defs>
</svg>
